<svg width="20" height="20" viewBox="0 0 20 20" fill="none" xmlns="http://www.w3.org/2000/svg">
<g id="check-lg">
<path id="Path (Stroke) (Stroke)" d="M15.1425 4.15448C15.6818 3.61517 16.5562 3.61517 17.0955 4.15448C17.6282 4.68716 17.6347 5.54676 17.1151 6.08747L9.7643 15.276C9.7537 15.2893 9.74236 15.3019 9.73035 15.3139C9.19105 15.8532 8.31667 15.8532 7.77736 15.3139L2.90448 10.441C2.36517 9.90174 2.36517 9.02736 2.90448 8.48806C3.44378 7.94876 4.31816 7.94876 4.85746 8.48806L8.71225 12.3428L15.1059 4.19579C15.1173 4.1813 15.1295 4.1675 15.1425 4.15448Z" fill="white"/>
<path id="Path (Stroke) (Stroke)_2" d="M15.9206 4.96209C16.2819 4.59597 16.8677 4.59597 17.229 4.96209C17.5859 5.32371 17.5903 5.90727 17.2422 6.27434L9.85031 15.0122C9.8432 15.0212 9.8356 15.0298 9.82756 15.0379C9.46625 15.404 8.88046 15.404 8.51915 15.0379L4.02098 10.4799C3.65967 10.1137 3.65967 9.52015 4.02098 9.15403C4.38229 8.78791 4.96808 8.78791 5.32939 9.15403L9.14548 13.0209L15.8961 4.99013C15.9037 4.98029 15.9119 4.97093 15.9206 4.96209Z" fill="white"/>
</g>
</svg>
